<svg id="visual" viewBox="0 0 24 24" width="24" height="24" xmlns="http://www.w3.org/2000/svg" xmlns:xlink="http://www.w3.org/1999/xlink" version="1.1"><rect x="0" y="0" width="24" height="24" fill="#fff"></rect><defs><linearGradient id="grad1_0" x1="0%" y1="0%" x2="100%" y2="100%"><stop offset="30%" stop-color="#ffffff" stop-opacity="1"></stop><stop offset="70%" stop-color="#ffffff" stop-opacity="1"></stop></linearGradient></defs><defs><linearGradient id="grad2_0" x1="0%" y1="0%" x2="100%" y2="100%"><stop offset="30%" stop-color="#ffffff" stop-opacity="1"></stop><stop offset="70%" stop-color="#ffffff" stop-opacity="1"></stop></linearGradient></defs><g transform="translate(24, 0)"><path d="M0 17C-2.4 15.6 -4.8 14.2 -7.5 13C-10.2 11.7 -13.1 10.6 -14.7 8.5C-16.3 6.3 -16.6 3.2 -17 0L0 0Z" fill="#DC2626"></path></g><g transform="translate(0, 24)"><path d="M0 -17C2.4 -15.6 4.8 -14.2 7.5 -13C10.2 -11.7 13.1 -10.6 14.7 -8.5C16.3 -6.3 16.6 -3.2 17 0L0 0Z" fill="#DC2626"></path></g></svg>